# Blender 4.1.1
# www.blender.org
mtllib trig_cube.mtl
o Cube.001
v 1.000000 1.000000 -1.000000
v 1.000000 -1.000000 -1.000000
v 1.000000 1.000000 1.000000
v 1.000000 -1.000000 1.000000
v -1.000000 1.000000 -1.000000
v -1.000000 -1.000000 -1.000000
v -1.000000 1.000000 1.000000
v -1.000000 -1.000000 1.000000
vn -0.0000 1.0000 -0.0000
vn -0.0000 -0.0000 1.0000
vn -1.0000 -0.0000 -0.0000
vn -0.0000 -1.0000 -0.0000
vn 1.0000 -0.0000 -0.0000
vn -0.0000 -0.0000 -1.0000
vt 1.000000 0.000000
vt 0.000000 0.000000
vt 1.000000 1.000000
vt 0.000000 1.000000
s 0
usemtl Material.001
f 1/1/1 5/2/1 3/3/1
f 4/1/2 3/3/2 8/2/2
f 8/4/3 7/3/3 6/2/3
f 6/2/4 2/1/4 8/4/4
f 2/2/5 1/1/5 4/4/5
f 6/2/6 5/4/6 2/1/6
f 3/3/1 5/2/1 7/4/1
f 2/1/6 5/4/6 1/3/6
f 8/2/2 3/3/2 7/4/2
f 6/2/3 7/3/3 5/1/3
f 8/4/4 2/1/4 4/3/4
f 4/4/5 1/1/5 3/3/5
